<?xml version="1.0" standalone="no"?>
<!DOCTYPE svg PUBLIC "-//W3C//DTD SVG 20010904//EN"
 "http://www.w3.org/TR/2001/REC-SVG-20010904/DTD/svg10.dtd">
<svg version="1.0" xmlns="http://www.w3.org/2000/svg"
 width="512.000000pt" height="512.000000pt" viewBox="0 0 512.000000 512.000000"
 preserveAspectRatio="xMidYMid meet">
<metadata>
Created by potrace 1.16, written by Peter Selinger 2001-2019
</metadata>
<g transform="translate(0.000000,512.000000) scale(0.100000,-0.100000)"
fill="#000000" stroke="none">
<path d="M1450 5076 c-5 -5 -10 -7 -10 -3 0 11 -91 -32 -134 -64 -48 -35 -92
-97 -106 -149 -9 -33 -15 -39 -47 -45 -112 -21 -196 -114 -197 -220 0 -27 5
-89 11 -137 16 -130 61 -196 168 -245 22 -11 62 -33 89 -51 27 -17 53 -33 58
-34 6 -2 3 -28 -6 -63 -8 -33 -18 -91 -21 -130 -3 -38 -8 -88 -11 -110 -6 -57
13 -243 36 -338 30 -131 68 -232 148 -397 91 -190 123 -277 129 -356 5 -53 2
-70 -21 -115 -26 -54 -61 -109 -90 -141 -9 -10 -12 -18 -8 -18 4 0 6 -31 4
-69 -5 -92 16 -153 84 -244 30 -39 57 -83 60 -97 3 -14 10 -36 14 -50 12 -32
9 -101 -4 -93 -5 4 -6 1 0 -8 13 -20 15 -100 5 -131 -6 -17 -6 -30 -1 -33 5
-3 15 15 21 40 6 25 15 45 20 45 5 0 8 3 8 8 -4 21 2 32 14 26 7 -5 7 -1 -2
10 -9 10 -11 20 -5 24 13 10 16 29 18 105 1 37 -2 67 -7 67 -5 0 -7 6 -4 13 2
6 0 22 -4 35 -6 15 -5 21 1 17 6 -3 10 1 10 9 0 10 -6 13 -15 10 -8 -4 -15 -1
-15 4 0 21 21 24 41 6 12 -11 16 -20 9 -24 -7 -5 -6 -11 3 -18 12 -10 14 -8
12 13 -4 33 -30 58 -54 50 -14 -4 -20 1 -26 22 -5 15 -7 34 -6 41 1 6 -3 12
-9 12 -6 0 -8 10 -4 26 5 19 3 25 -4 20 -15 -9 -26 54 -18 99 4 19 33 74 65
123 32 48 64 104 71 126 24 74 -3 171 -71 258 -39 49 -74 128 -96 213 -27 111
-25 396 5 540 13 60 25 111 27 114 3 2 7 -14 11 -36 9 -61 14 -64 64 -46 l45
16 -3 110 c-2 61 1 138 8 171 17 84 64 198 114 275 48 73 126 165 134 157 2
-3 -17 -29 -42 -57 -67 -74 -124 -176 -154 -272 -21 -69 -25 -103 -26 -219 -1
-75 2 -139 5 -142 3 -3 30 2 60 13 l54 18 -3 64 c-4 70 10 166 34 242 21 65
29 53 10 -14 -22 -80 -29 -152 -21 -220 7 -56 9 -60 29 -56 11 3 46 11 77 18
l57 13 108 -81 c60 -44 127 -90 149 -101 85 -42 202 -64 249 -46 18 7 22 55 6
83 -5 10 -20 26 -34 35 -23 15 -25 15 -19 0 5 -14 3 -15 -17 -4 -18 10 -21 9
-15 -1 6 -9 3 -10 -11 -5 -10 5 -37 10 -59 13 -40 6 -222 87 -259 116 -18 13
-15 15 55 27 117 18 107 9 101 105 -2 48 1 119 8 162 13 83 66 243 80 243 5 0
0 -25 -10 -56 -35 -102 -53 -221 -48 -327 3 -53 7 -99 9 -101 2 -1 45 1 94 6
56 5 167 4 295 -3 113 -6 218 -12 235 -13 26 -1 31 4 43 39 19 56 11 310 -13
383 -9 30 -14 56 -12 58 8 9 67 -93 88 -152 28 -80 35 -221 16 -294 -9 -30
-15 -55 -14 -56 1 -1 61 -21 132 -44 72 -24 135 -45 142 -47 16 -6 25 30 33
132 5 82 7 86 15 50 4 -22 4 -73 -1 -117 l-9 -78 29 -10 c16 -5 32 -7 35 -4 3
3 6 83 5 177 0 155 -3 180 -26 255 -14 45 -22 82 -18 82 11 0 57 -154 71 -234
7 -40 10 -117 7 -183 -5 -110 -5 -115 16 -123 11 -4 24 -6 28 -4 15 9 30 147
26 232 -5 100 0 100 34 2 18 -52 22 -87 22 -176 0 -99 3 -113 20 -124 25 -16
32 -3 41 74 8 81 -9 209 -39 298 -30 84 -28 100 3 29 43 -102 56 -170 56 -306
0 -89 4 -133 12 -140 7 -5 17 -56 23 -111 14 -128 2 -210 -46 -319 -78 -176
-89 -213 -89 -316 0 -94 1 -97 48 -192 26 -52 47 -100 47 -105 0 -6 6 -12 13
-15 9 -3 9 -8 -2 -18 -12 -12 -13 -12 -6 1 5 8 4 11 0 7 -12 -10 -18 -36 -17
-75 0 -17 -3 -32 -7 -32 -17 0 -9 -42 9 -47 11 -3 17 -9 15 -14 -3 -4 -12 -6
-20 -2 -8 3 -15 0 -15 -6 0 -6 4 -11 9 -11 15 0 1 -38 -16 -45 -13 -4 -14 -3
-3 10 10 12 10 15 -1 15 -10 0 -11 2 -2 8 7 5 9 13 4 21 -7 10 -10 8 -16 -10
-3 -13 -10 -33 -15 -44 -23 -49 -33 -81 -32 -100 1 -12 -1 -14 -4 -7 -9 20
-54 -59 -48 -83 4 -15 3 -16 -4 -6 -7 10 -18 2 -46 -34 -20 -27 -36 -44 -36
-40 0 4 -27 -19 -60 -50 -32 -32 -57 -62 -54 -67 3 -4 -1 -8 -8 -8 -21 0 -59
-30 -52 -42 4 -6 10 -5 15 3 5 8 9 9 9 3 0 -18 -12 -24 -26 -13 -10 8 -26 0
-64 -33 l-51 -43 2 -203 c1 -112 -2 -207 -7 -212 -9 -8 -527 -230 -538 -230
-4 0 -57 24 -119 53 -61 30 -174 82 -249 117 -105 48 -138 67 -138 82 0 10 -4
18 -10 18 -6 0 -6 9 -1 23 6 14 5 30 -1 41 -7 13 -7 17 0 12 6 -4 10 2 9 13
-1 19 -2 19 -21 3 -18 -16 -19 -16 -14 5 7 28 -5 38 -21 19 -7 -8 -20 -13 -29
-11 -9 2 -23 4 -31 4 -27 2 1 16 32 17 26 0 32 5 31 22 0 12 3 22 8 22 5 0 6
5 3 11 -4 6 -9 8 -12 5 -3 -2 -16 -1 -30 5 -16 6 -22 6 -18 -1 3 -6 13 -10 21
-10 8 0 14 -4 14 -9 0 -11 -19 -9 -38 3 -7 4 -16 5 -20 1 -4 -4 -1 -10 6 -12
6 -3 12 -9 12 -15 0 -6 -6 -8 -13 -5 -9 3 -13 -4 -12 -22 0 -20 5 -25 19 -23
10 2 15 -1 12 -6 -3 -5 -20 -12 -36 -14 -23 -3 -30 -1 -26 9 3 7 1 13 -4 13
-5 0 -7 8 -4 17 5 14 4 15 -4 4 -6 -8 -8 -20 -5 -28 3 -7 -1 -13 -10 -13 -12
0 -13 -7 -7 -35 4 -20 4 -38 -1 -41 -5 -3 -7 -10 -4 -15 4 -5 0 -9 -8 -9 -17
0 -12 -36 6 -47 6 -3 7 -1 3 5 -4 7 -3 12 2 12 5 0 12 -9 15 -20 3 -11 1 -18
-3 -15 -5 3 -11 1 -14 -4 -4 -5 2 -11 11 -14 10 -2 3 -4 -15 -4 -22 0 -29 3
-20 9 10 6 7 10 -9 14 -25 7 -30 19 -12 29 6 4 8 13 5 21 -3 7 3 18 12 23 9 6
12 11 6 11 -14 0 -25 60 -12 60 5 0 7 9 3 19 -3 11 -1 22 5 26 5 3 10 1 10 -4
0 -6 5 -11 10 -11 6 0 10 7 10 15 0 8 -6 14 -12 12 -7 -1 -12 4 -11 10 2 7 -2
13 -7 13 -9 0 -14 -14 -11 -32 2 -12 -17 -10 -24 2 -4 6 -10 8 -15 5 -5 -3
-11 -1 -14 4 -4 5 -2 12 3 15 5 4 12 2 16 -4 10 -16 25 -12 25 6 0 12 -7 15
-24 12 -17 -4 -23 -1 -19 9 3 7 9 10 15 7 5 -3 2 8 -6 25 -9 17 -19 31 -22 31
-3 0 -3 -4 0 -9 4 -5 2 -11 -2 -13 -5 -1 -12 -16 -16 -33 -7 -28 -7 -29 8 -10
14 19 15 19 13 -9 -1 -19 4 -32 18 -40 22 -12 35 -27 35 -39 0 -5 -6 -5 -12
-1 -10 6 -10 5 -1 -7 11 -13 11 -34 -1 -106 -4 -24 -1 -35 12 -42 9 -6 13 -11
8 -11 -5 0 -3 -7 4 -15 10 -12 10 -15 -4 -15 -9 0 -16 8 -17 18 0 14 -2 13
-11 -4 -8 -17 -27 -24 -106 -37 -60 -10 -98 -13 -100 -7 -5 15 -22 12 -22 -4
0 -13 -107 -36 -180 -40 -14 0 -27 -4 -30 -7 -3 -3 -57 -18 -120 -33 -339 -82
-519 -152 -562 -219 -52 -78 -122 -358 -173 -689 -23 -144 -32 -214 -29 -219
2 -4 1041 -7 2309 -8 l2305 -1 0 880 c-1 678 -4 880 -13 880 -7 0 -6 4 3 10
12 7 10 11 -10 19 -14 5 -20 10 -13 10 7 1 10 8 6 17 -4 10 -9 12 -16 5 -5 -5
-17 -7 -26 -4 -10 3 -12 2 -4 -4 8 -6 8 -12 -1 -25 -7 -10 -16 -15 -19 -11 -4
3 -5 -8 -3 -24 2 -23 0 -30 -10 -26 -8 3 -16 -5 -20 -21 -3 -14 -11 -26 -18
-26 -7 0 -8 -3 -1 -8 13 -9 13 -27 1 -39 -5 -5 -6 -2 -1 6 5 10 4 12 -3 7 -8
-5 -9 -13 -2 -26 7 -14 6 -20 -7 -24 -9 -4 -16 -5 -17 -4 -1 2 -6 13 -13 25
-10 17 -9 24 2 33 8 6 11 18 8 27 -4 9 -8 11 -12 4 -11 -17 -39 9 -43 39 -2
14 -6 27 -9 30 -13 11 3 80 18 80 13 0 13 -3 3 -15 -7 -8 -9 -15 -6 -15 4 0 2
-10 -4 -22 -10 -21 -10 -21 3 -6 8 10 17 15 20 12 3 -4 4 7 3 22 -2 16 -4 36
-5 45 -1 9 -10 15 -21 15 -10 -1 -18 4 -17 9 1 6 13 10 27 10 21 0 24 4 25 42
1 36 -1 40 -16 32 -27 -14 -29 -12 -29 26 0 28 4 35 20 35 16 0 18 -4 10 -24
-8 -21 -6 -23 11 -19 11 3 18 11 15 18 -2 7 1 18 7 24 8 8 7 11 -3 11 -9 0 -6
6 8 16 12 8 22 22 22 30 0 8 5 12 10 9 6 -3 10 1 10 9 0 8 8 20 18 25 9 6 11
11 5 11 -7 0 -13 11 -13 24 0 14 -5 28 -12 32 -7 4 -8 3 -4 -4 5 -8 2 -10 -8
-6 -28 11 -16 30 16 25 4 0 4 7 1 16 -4 11 -8 13 -11 5 -6 -20 -25 -13 -19 8
3 13 -1 21 -14 25 -10 4 -19 11 -19 17 0 6 -3 8 -7 4 -4 -3 -13 6 -20 21 -12
27 -12 27 -10 4 1 -13 -4 -26 -12 -29 -9 -3 -11 0 -6 8 6 10 4 12 -8 7 -18 -7
-22 2 -9 19 4 5 -1 1 -10 -9 -10 -11 -18 -14 -18 -8 0 7 -4 9 -10 6 -5 -3 -10
-1 -10 4 0 6 5 11 10 11 6 0 10 4 10 10 0 5 -7 6 -17 3 -12 -5 -14 -3 -8 8 4
8 5 11 0 7 -9 -9 -58 58 -60 82 -1 8 -7 32 -14 52 -10 31 -17 37 -39 36 -15
-1 -36 2 -47 6 -16 6 -17 6 -5 -3 13 -10 8 -15 -12 -12 -5 0 -8 -7 -9 -17 0
-16 -1 -16 -7 0 -7 17 -8 17 -19 -1 -10 -15 -9 -18 5 -17 9 0 18 -8 20 -19 2
-16 1 -17 -7 -5 -9 13 -11 12 -11 -3 0 -10 -4 -16 -9 -12 -6 3 -14 -3 -20 -12
-6 -10 -11 -13 -11 -8 0 6 -5 3 -10 -5 -8 -13 -10 -12 -10 3 0 9 -4 17 -10 17
-5 0 -7 -7 -4 -15 4 -8 2 -15 -4 -15 -9 0 -19 -22 -28 -64 -2 -10 1 -25 7 -32
9 -11 8 -14 -5 -14 -9 0 -16 5 -16 12 0 6 -6 3 -14 -8 -8 -10 -10 -20 -5 -22
5 -2 2 -10 -5 -18 -17 -16 -30 -19 -21 -4 3 6 1 10 -4 10 -6 0 -11 -7 -11 -15
0 -8 6 -15 13 -15 7 0 8 -3 2 -8 -6 -4 -16 -19 -24 -34 -8 -15 -18 -25 -23
-22 -4 3 -8 0 -8 -5 0 -6 7 -11 15 -11 8 0 15 5 15 12 0 6 3 8 6 5 10 -10 -17
-38 -29 -30 -5 3 -7 1 -3 -5 3 -6 2 -22 -4 -36 -5 -14 -6 -28 -1 -30 12 -8 12
-86 0 -86 -7 0 -9 -10 -4 -28 5 -22 4 -25 -6 -14 -7 6 -17 12 -23 12 -5 0 1
-8 12 -19 24 -20 29 -41 10 -41 -9 -1 -8 -4 2 -13 18 -14 19 -42 3 -58 -6 -6
-9 -19 -6 -28 3 -9 -4 -2 -15 15 -11 17 -22 40 -25 50 -4 17 -5 18 -6 1 0 -10
-6 -15 -11 -12 -6 4 -9 1 -8 -7 2 -8 -6 -12 -22 -11 -14 1 -18 0 -7 -3 9 -3
17 -11 17 -17 0 -7 4 -6 10 3 8 12 10 12 10 -5 0 -14 3 -16 9 -7 6 11 10 11
19 0 9 -11 3 -14 -26 -13 -36 0 -37 -1 -35 -35 1 -19 -1 -27 -3 -18 -7 22 -30
23 -38 3 -5 -15 9 -22 17 -7 2 4 2 1 0 -6 -5 -20 8 -37 17 -22 4 7 10 8 13 3
3 -5 -3 -15 -15 -22 -15 -9 -18 -10 -13 0 5 8 4 10 -3 5 -7 -4 -12 -16 -12
-27 0 -10 -4 -19 -10 -19 -5 0 -10 9 -10 21 0 11 -4 18 -8 15 -4 -2 -7 -20 -7
-39 2 -34 -7 -40 -32 -24 -19 12 -16 3 7 -23 22 -25 26 -40 10 -40 -5 0 -10 4
-10 8 0 5 -7 9 -16 9 -15 0 -15 -1 -1 -12 12 -8 13 -15 5 -23 -13 -13 -4 -42
14 -42 9 0 9 3 0 12 -16 16 -15 29 2 22 14 -5 13 -44 -1 -67 -3 -6 -1 -7 6 -3
6 4 14 0 18 -9 3 -10 0 -21 -7 -25 -7 -4 -10 -15 -7 -24 4 -9 2 -16 -2 -16
-21 0 -18 -32 4 -54 23 -23 24 -26 7 -35 -14 -8 -15 -12 -5 -22 14 -14 17 -29
5 -29 -4 0 -14 15 -22 32 -10 24 -15 28 -18 16 -2 -10 4 -25 12 -34 18 -17 21
-59 6 -69 -6 -4 -7 1 -3 11 4 12 3 15 -5 10 -7 -4 -12 -15 -12 -24 -1 -13 -4
-11 -14 7 l-13 23 -6 -23 c-10 -35 -8 -46 4 -29 8 12 10 8 6 -17 -2 -18 1 -34
7 -37 36 -14 -57 0 -159 24 -66 16 -148 34 -182 41 -35 6 -63 15 -63 18 0 4
-12 7 -27 6 -19 0 -31 7 -40 25 -13 26 -33 33 -45 16 -3 -5 -17 -10 -31 -10
-22 -1 -23 1 -14 21 5 12 14 20 20 16 5 -3 8 0 5 8 -3 8 -12 14 -21 14 -9 0
-16 4 -16 9 0 5 -5 13 -13 18 -9 6 -5 7 11 3 21 -7 23 -5 19 19 -3 15 -3 24 0
21 3 -2 11 0 19 7 21 17 36 -3 24 -33 l-10 -24 0 23 c-1 13 -5 21 -10 17 -11
-6 -10 -45 1 -45 15 0 8 -39 -8 -48 -14 -8 -14 -10 -1 -15 9 -3 18 1 21 9 3 9
10 12 16 9 5 -3 10 -2 10 4 0 5 -3 11 -7 14 -5 2 -3 2 4 1 6 -2 14 4 17 12 3
9 10 12 16 9 7 -4 7 2 1 18 -7 17 -6 28 2 36 9 9 8 11 -6 5 -10 -3 -16 -13
-13 -20 3 -8 0 -14 -8 -14 -8 0 -11 10 -8 30 3 18 0 30 -7 30 -6 0 -11 9 -11
20 0 11 -5 20 -11 20 -5 0 -7 5 -4 10 3 6 -1 13 -9 16 -9 3 -16 11 -16 17 0 6
3 7 7 4 3 -4 11 -3 17 2 16 13 49 17 64 8 19 -13 14 0 -10 24 -13 12 -18 19
-11 15 7 -4 9 1 5 16 -5 19 -7 20 -10 5 -2 -9 -8 -14 -14 -11 -6 4 -8 -2 -3
-16 6 -19 4 -22 -11 -16 -9 4 -20 2 -24 -3 -3 -6 -18 5 -33 25 -16 19 -25 34
-20 33 21 -4 32 2 27 15 -3 8 -1 23 5 33 9 15 10 13 5 -10 -5 -20 -3 -27 7
-25 7 2 14 -6 16 -17 3 -20 3 -20 -6 0 -8 19 -8 19 -20 -3 -10 -19 -9 -23 5
-29 10 -4 19 -2 22 5 2 7 10 18 17 26 12 11 12 16 0 33 -12 17 -11 21 6 33 20
15 25 45 10 55 -6 3 -8 15 -6 26 3 17 2 19 -10 9 -12 -10 -12 -15 1 -35 11
-18 12 -25 3 -31 -8 -4 -9 -3 -5 4 4 7 2 12 -5 12 -7 0 -9 3 -6 7 8 7 -11 33
-24 33 -5 0 -6 -8 -2 -18 6 -16 5 -16 -14 1 -11 9 -23 14 -28 10 -4 -5 -5 -3
-1 4 4 7 12 11 19 9 7 -1 9 -1 4 1 -4 3 -4 9 -1 15 4 5 -4 4 -17 -3 -21 -11
-22 -10 -12 3 7 8 10 17 7 21 -3 3 4 3 17 0 17 -5 21 -3 17 8 -4 11 1 15 19
15 23 0 23 -1 7 -13 -22 -16 -27 -40 -9 -47 8 -3 16 5 19 20 6 22 8 23 22 9
18 -17 30 -19 39 -5 3 6 -1 7 -10 4 -11 -4 -14 -2 -9 9 3 9 13 13 26 9 15 -3
19 -1 14 7 -4 6 -11 9 -16 6 -5 -3 -11 8 -15 25 -4 16 -10 32 -15 35 -5 3 -7
12 -4 20 4 8 10 12 15 9 5 -3 9 9 9 26 0 17 4 29 9 25 5 -3 13 0 17 6 4 7 3 9
-4 5 -5 -3 -13 0 -15 6 -3 7 -8 -2 -12 -20 -5 -22 -12 -31 -21 -28 -10 4 -14
-3 -14 -20 0 -17 -4 -23 -12 -18 -7 4 -10 4 -6 -1 4 -4 3 -15 -2 -24 -6 -13
-2 -20 20 -29 20 -9 27 -18 23 -29 -6 -14 -8 -13 -16 5 -6 12 -18 22 -28 22
-22 0 -34 17 -17 23 7 2 10 7 7 11 -7 7 -15 0 -45 -39 -13 -16 -15 -17 -10 -2
3 9 1 17 -4 17 -5 0 -9 10 -7 22 1 18 -3 23 -20 23 -20 0 -34 14 -15 16 4 0
13 5 19 11 10 8 13 6 13 -6 0 -9 7 -19 15 -22 11 -5 13 -10 5 -19 -5 -6 -7
-15 -3 -18 11 -12 32 28 26 52 -5 21 -4 22 15 12 28 -15 32 -14 32 9 0 11 4
20 10 20 5 0 7 6 4 13 -10 26 -33 15 -30 -14 4 -31 -17 -30 -35 2 -7 15 -6 17
6 13 15 -6 22 11 8 19 -5 2 -3 3 4 1 17 -4 24 8 12 22 -6 8 -16 11 -22 7 -6
-4 -7 -1 -2 6 5 9 13 7 29 -8 17 -16 25 -18 34 -9 9 9 12 8 13 -7 0 -18 1 -18
11 2 12 25 23 29 33 13 4 -6 15 -4 30 6 14 9 22 20 19 25 -3 5 2 6 10 3 13 -5
13 -1 3 25 -6 16 -14 28 -18 25 -7 -4 -30 28 -35 46 0 3 -4 13 -8 23 -5 10 -3
23 4 32 7 8 10 22 6 30 -3 8 -1 15 4 15 6 0 10 7 10 15 0 21 42 105 53 105 4
0 6 4 3 9 -3 5 3 28 13 52 40 93 36 181 -13 312 -33 88 -30 153 11 222 66 113
75 166 53 320 l-13 90 40 80 c101 202 132 397 99 615 -8 52 -18 103 -21 112
-5 11 0 18 17 23 13 4 43 22 68 39 25 17 66 44 91 58 51 30 114 95 131 136 6
15 13 85 15 155 2 99 0 134 -12 156 -21 42 -92 99 -146 118 -44 16 -47 19 -53
61 -12 92 -60 137 -189 183 -190 67 -348 11 -452 -162 -20 -32 -41 -59 -46
-59 -6 0 -8 -4 -5 -8 2 -4 1 -14 -4 -22 -7 -11 -24 -9 -97 13 -151 47 -230 59
-363 59 -136 -1 -252 -23 -318 -63 l-35 -20 -96 28 c-87 25 -110 28 -241 27
-120 -1 -157 -5 -215 -23 -102 -32 -99 -33 -106 24 -3 28 -14 65 -23 83 -18
35 -108 111 -168 143 -65 34 -226 57 -248 35z m200 -53 c34 -7 33 -7 -20 -14
-30 -3 -86 -10 -125 -14 -85 -9 -138 -37 -219 -114 -56 -53 -58 -55 -51 -26
15 65 87 132 170 158 77 25 147 28 245 10z m2173 -4455 c144 -73 -15 -214
-186 -164 -153 44 -137 150 28 189 35 9 118 -5 158 -25z"/>
<path d="M1805 3374 c-56 -6 -197 -35 -213 -43 -8 -4 16 -20 61 -40 42 -18
102 -56 138 -86 98 -84 134 -98 264 -102 74 -2 128 1 165 11 l55 14 -80 -6
-80 -5 32 32 c18 18 37 50 43 72 10 36 13 38 32 28 11 -6 40 -31 64 -55 l44
-44 -20 41 c-43 83 -135 149 -235 168 -63 12 -217 20 -270 15z"/>
<path d="M3130 3369 c-108 -18 -209 -89 -256 -180 -17 -34 -16 -34 33 12 27
26 59 51 70 57 19 10 21 8 27 -28 4 -24 17 -50 36 -69 l31 -30 -68 -3 -68 -3
90 -14 c157 -24 266 4 370 96 28 24 90 63 138 87 l88 43 -113 21 c-120 24
-273 28 -378 11z"/>
<path d="M2386 2071 c-31 -32 -43 -38 -57 -31 -24 13 -29 13 -29 -5 0 -8 14
-24 31 -34 22 -13 39 -37 55 -77 32 -80 71 -124 140 -159 53 -27 69 -30 149
-30 75 0 98 4 140 25 90 44 138 105 159 200 3 17 18 32 41 43 19 9 35 21 35
26 0 17 -19 22 -40 11 -16 -8 -25 -8 -35 0 -9 7 -26 8 -56 1 -74 -17 -139 -13
-195 13 l-51 24 -59 -29 c-98 -48 -163 -32 -184 44 -4 15 -11 12 -44 -22z
m279 -99 c6 0 67 2 138 5 80 2 127 1 127 -6 0 -45 -52 -111 -115 -144 -33 -18
-57 -22 -135 -22 -91 0 -97 1 -141 32 -52 36 -77 69 -86 114 l-6 30 104 -4
c57 -3 109 -5 114 -5z"/>
</g>
</svg>
